<svg width="151" height="48" viewBox="0 0 151 48" fill="none" xmlns="http://www.w3.org/2000/svg">
<g clip-path="url(#clip0_10602_795)">
<path d="M5.70763 17.873V29.7656C5.70763 32.4932 5.25075 34.1844 4.55519 35.3641C3.61262 36.8699 2.21206 38.0339 0.55917 38.685L0 37.9144C1.04312 37.3731 1.88637 36.5131 2.40716 35.4595C2.99361 34.3071 3.3482 32.6705 3.3482 30.2634V17.873C3.3482 16.3455 2.03211 16.4 0.9615 16.4V15.384C1.76616 15.384 3.10271 15.4385 4.44609 15.4385C5.78946 15.4385 6.9078 15.384 7.71246 15.384V16.4C6.9078 16.4 5.70081 16.3455 5.70081 17.873" fill="#1E2E50"/>
<path d="M23.1857 16.2704C19.0055 16.2704 16.4893 19.6459 16.4893 24.4534C16.5029 27.9585 17.7304 32.766 23.1448 32.766C26.7589 32.766 29.548 30.1951 29.548 24.8353C29.548 20.3347 27.9659 16.2636 23.1993 16.2636M22.8788 34.1298C17.2257 34.1298 13.7207 30.4338 13.7207 24.8353C13.7207 19.0731 17.4712 14.8998 23.3357 14.8998C29.2002 14.8998 32.3029 19.189 32.3029 24.5489C32.3029 29.5064 28.8933 34.1639 22.872 34.1639" fill="#1E2E50"/>
<path d="M54.5542 33.6252C53.1904 33.6252 52.1675 33.6798 51.3629 33.6798V32.6637C52.1675 32.6637 53.3745 32.7183 53.3745 31.1908V24.8899H42.4639V31.184C42.4639 32.7114 43.6709 32.6569 44.4755 32.6569V33.6729C43.6709 33.6729 42.6275 33.6184 41.2842 33.6184C39.9408 33.6184 38.8974 33.6729 38.0996 33.6729V32.6637C38.9043 32.6637 40.1113 32.7183 40.1113 31.1908V17.873C40.1113 16.3455 38.9043 16.4 38.0996 16.4V15.384C38.9043 15.384 39.9476 15.4385 41.2842 15.4385C42.6207 15.4385 43.6709 15.384 44.4755 15.384V16.4C43.6709 16.4 42.4639 16.3455 42.4639 17.873V23.6624H53.3745V17.873C53.3745 16.3455 52.1675 16.4 51.3629 16.4V15.384C52.1675 15.384 53.2654 15.4385 54.602 15.4385C55.9385 15.4385 56.9341 15.384 57.7388 15.384V16.4C56.9341 16.4 55.7271 16.3455 55.7271 17.873V31.1908C55.7271 32.7183 56.9341 32.6637 57.7388 32.6637V33.6798C56.9341 33.6798 55.8908 33.6252 54.5542 33.6252Z" fill="#1E2E50"/>
<path d="M60.1864 30.1952C60.1868 30.4843 60.2463 30.7704 60.3613 31.0357C60.4763 31.301 60.6444 31.54 60.8551 31.738C61.0659 31.936 61.3149 32.0888 61.5869 32.187C61.8589 32.2852 62.1481 32.3268 62.4367 32.3091C62.8468 32.317 63.2529 32.2263 63.6207 32.0448C63.9885 31.8633 64.3075 31.5961 64.5507 31.2658V27.8562C61.9526 28.1494 60.1591 28.4972 60.1591 30.1884M66.9783 33.8843C66.9783 33.8843 65.9349 33.6934 64.9325 32.1182C64.5296 32.6638 64.0047 33.1077 63.3996 33.4144C62.7946 33.721 62.1262 33.882 61.4479 33.8843C59.6818 33.8843 58.1543 32.7592 58.1543 30.9385C58.1543 29.1177 59.4158 28.1017 60.8342 27.6175C62.043 27.2396 63.2933 27.0106 64.5575 26.9356V25.2308C64.5848 24.8678 64.5327 24.5031 64.4046 24.1623C64.2765 23.8215 64.0756 23.5127 63.8159 23.2576C63.5562 23.0024 63.2439 22.807 62.9009 22.6849C62.5579 22.5629 62.1923 22.5171 61.8298 22.5509C61.2529 22.5539 60.6849 22.694 60.1728 22.9596C59.6606 23.2252 59.2189 23.6086 58.8839 24.0784L58.2702 23.5397C58.6726 22.36 60.3842 20.887 62.7163 20.887C66.8419 20.887 66.651 24.3443 66.651 24.6376L66.5964 30.1815C66.5964 31.5454 67.8852 32.1114 69.0308 32.5955L66.9783 33.8843Z" fill="#1E2E50"/>
<path d="M89.1055 33.6252C87.7417 33.6252 86.6166 33.6797 85.9687 33.6797V32.6637C87.0666 32.6637 87.9804 32.5341 87.9804 30.9521V25.4286C87.9804 23.7442 86.7461 22.7009 84.9527 22.7009C84.3933 22.7078 83.8416 22.8328 83.3339 23.0679C82.8262 23.3029 82.374 23.6426 82.0068 24.0647C82.0579 24.3736 82.0852 24.6859 82.0886 24.999V30.9453C82.0886 32.5546 83.1047 32.6569 84.1003 32.6569V33.6729C83.2956 33.6729 82.3069 33.6184 80.9635 33.6184C79.6201 33.6184 78.4745 33.6729 77.8267 33.6729V32.6637C78.9246 32.6637 79.8315 32.5341 79.8315 30.9521V25.4286C79.8315 23.7442 78.5972 22.7009 76.8038 22.7009C76.2498 22.6901 75.6996 22.7941 75.1879 23.0066C74.6762 23.219 74.2141 23.5352 73.8307 23.9352V30.9453C73.8307 32.5546 74.8467 32.6569 75.8423 32.6569V33.6729C75.0376 33.6729 74.0489 33.6184 72.7055 33.6184C71.3621 33.6184 70.2165 33.6729 69.5687 33.6729V32.6637C70.6666 32.6637 71.5803 32.5341 71.5803 30.9521V23.2328C70.5097 22.9941 70.2915 22.9669 69.3027 22.6736V21.6508C70.523 21.5381 71.7264 21.2864 72.8896 20.9007H73.7761V22.8305C74.2999 22.207 74.9576 21.7096 75.7002 21.3755C76.4429 21.0414 77.2513 20.8791 78.0653 20.9007C79.0268 20.9007 80.9294 21.3848 81.6318 23.0691C82.1988 22.4042 82.9004 21.867 83.6903 21.4932C84.4802 21.1194 85.3405 20.9175 86.2142 20.9007C87.4212 20.9007 90.2307 21.4871 90.2307 24.9444V30.9453C90.2307 32.5546 91.2468 32.6569 92.2355 32.6569V33.6729C91.4309 33.6729 90.4421 33.6184 89.1055 33.6184" fill="#1E2E50"/>
<path d="M98.3189 22.5032C97.3195 22.417 96.3247 22.7144 95.5367 23.3351V31.6954C96.3108 32.3464 97.3108 32.6651 98.3189 32.5819C100.678 32.5819 102.179 30.5361 102.179 27.7334C102.179 24.8148 100.944 22.5373 98.3189 22.5373M97.4597 33.9457C95.955 33.958 94.4874 33.4792 93.2795 32.5819V15.4931C92.2089 15.2544 91.9975 15.1998 91.002 14.9066V13.8838C92.221 13.7789 93.4243 13.5364 94.5888 13.1609H95.5299V22.2645C96.6131 21.3277 98.0132 20.8398 99.4441 20.9007C102.71 20.9007 104.586 23.5806 104.586 26.7651C104.586 30.2497 102.308 33.9457 97.4597 33.9457Z" fill="#1E2E50"/>
<path d="M112.026 23.1851C110.662 23.1851 109.721 23.5056 109.052 24.3375V30.9248C109.052 32.5341 110.178 32.6364 111.248 32.6364V33.6525C110.443 33.6525 109.373 33.5979 108.036 33.5979C106.7 33.5979 105.602 33.6525 104.797 33.6525V32.6637C105.895 32.6637 106.809 32.5273 106.809 30.9521V23.2328C105.738 22.9941 105.527 22.9668 104.531 22.6736V21.6508C105.751 21.5375 106.955 21.2859 108.118 20.9006H109.005V23.2601C109.341 22.591 109.847 22.0214 110.471 21.6076C111.095 21.1938 111.817 20.9501 112.564 20.9006C112.909 20.901 113.252 20.9563 113.58 21.0643V23.3965C113.07 23.2821 112.549 23.2181 112.026 23.2055" fill="#1E2E50"/>
<path d="M119.696 22.1895C116.695 22.1895 115.891 25.1081 115.891 27.3857C115.891 29.9019 116.804 32.6364 119.723 32.6364C122.642 32.6364 123.446 29.7724 123.446 27.3584C123.446 25.1353 122.642 22.1895 119.696 22.1895ZM119.559 33.9184C115.891 33.9184 113.347 31.6135 113.347 27.5152C113.329 26.6594 113.481 25.8084 113.794 25.0115C114.106 24.2147 114.574 23.4877 115.169 22.8726C115.765 22.2576 116.476 21.7666 117.262 21.4281C118.049 21.0896 118.894 20.9104 119.75 20.9006C123.74 20.9006 125.963 23.526 125.963 27.3311C126.005 28.1918 125.87 29.0519 125.565 29.858C125.261 30.6641 124.794 31.399 124.193 32.0169C123.593 32.6348 122.871 33.1224 122.074 33.4496C121.277 33.7767 120.421 33.9363 119.559 33.9184Z" fill="#1E2E50"/>
<path d="M21.0312 40.233C21.0312 39.6806 20.7653 39.0601 19.3128 39.0601C17.2671 39.0601 16.4829 40.1852 16.4829 41.8832C16.4829 43.8539 17.6898 45.0064 19.4014 45.0064C20.4925 45.0064 20.9767 44.795 20.9767 43.9358H21.3654C21.3654 43.9358 21.3654 44.3381 21.3654 44.6177C21.3654 44.8973 21.3654 45.2996 21.3654 45.2996C20.7019 45.4141 20.0326 45.4915 19.3605 45.5315C17.0216 45.5315 15.4668 44.2563 15.4668 42.0401C15.4668 39.9466 16.7761 38.4464 19.2582 38.4464C19.8682 38.4637 20.4764 38.5207 21.079 38.6168H21.4131C21.4131 38.6168 21.4131 39.1283 21.4131 39.4351C21.4131 39.742 21.4131 40.1989 21.4131 40.1989L21.0312 40.233Z" fill="#1E2E50"/>
<path d="M22.6113 44.2017C22.6121 44.3118 22.6352 44.4206 22.6794 44.5215C22.7235 44.6224 22.7877 44.7133 22.8681 44.7886C22.9485 44.8638 23.0434 44.922 23.1469 44.9594C23.2505 44.9969 23.3606 45.0128 23.4705 45.0063C23.6264 45.009 23.7807 44.9746 23.9207 44.9058C24.0606 44.837 24.1821 44.7359 24.2752 44.6108V43.3152C23.2864 43.4311 22.5977 43.5607 22.5977 44.2017M25.2299 45.6064C24.8887 45.4915 24.6068 45.2464 24.4457 44.9245C24.2929 45.1344 24.093 45.3054 23.8621 45.4239C23.6311 45.5423 23.3755 45.6048 23.116 45.6064C22.9561 45.6254 22.794 45.6109 22.64 45.5638C22.486 45.5167 22.3435 45.438 22.2216 45.3328C22.0997 45.2276 22.0011 45.0982 21.932 44.9527C21.8629 44.8073 21.8249 44.649 21.8203 44.4881C21.8236 44.1925 21.9263 43.9067 22.1119 43.6766C22.2974 43.4465 22.555 43.2856 22.8432 43.2197C23.3125 43.0739 23.7981 42.9868 24.2888 42.9606V42.2787C24.2992 42.1411 24.2795 42.003 24.2313 41.8737C24.1831 41.7445 24.1075 41.6272 24.0096 41.53C23.9118 41.4328 23.794 41.358 23.6645 41.3106C23.5349 41.2633 23.3966 41.2446 23.2592 41.2558C23.0387 41.2543 22.8212 41.3062 22.6253 41.4072C22.4293 41.5081 22.2607 41.6551 22.134 41.8354L21.8953 41.6309C22.0506 41.3165 22.2935 41.054 22.5949 40.8748C22.8962 40.6957 23.243 40.6078 23.5933 40.6216C23.7894 40.6016 23.9875 40.6243 24.174 40.6883C24.3605 40.7522 24.5309 40.8558 24.6734 40.9919C24.816 41.128 24.9274 41.2934 24.9999 41.4767C25.0725 41.66 25.1044 41.8568 25.0935 42.0536V44.1676C25.0935 44.6995 25.5845 44.904 26.0209 45.0882L25.2299 45.6064Z" fill="#1E2E50"/>
<path d="M28.4843 41.2967C28.283 41.281 28.0807 41.3101 27.892 41.382C27.7034 41.454 27.533 41.5669 27.3933 41.7127V44.7404C27.6988 44.9941 28.0876 45.1253 28.4843 45.1086C29.3231 45.1086 29.9641 44.5699 29.9641 43.2061C29.9641 41.9786 29.3299 41.2967 28.4843 41.2967ZM28.4843 45.6064C28.117 45.6366 27.748 45.5708 27.4137 45.4155V46.8748C27.4137 47.4885 27.8433 47.5567 28.2525 47.5567V47.9454C27.9456 47.9454 27.5365 47.9454 27.025 47.9454C26.5136 47.9454 26.0976 47.9454 25.7908 47.9454V47.5294C26.2067 47.5294 26.5613 47.4817 26.5613 46.8475V41.5422C26.1522 41.4467 26.0704 41.4399 25.6953 41.3308V40.9148C26.1594 40.8719 26.617 40.7758 27.0591 40.6284H27.3933V41.2626C27.5794 41.047 27.8129 40.8776 28.0756 40.7675C28.3383 40.6575 28.6229 40.6099 28.9071 40.6284C30.271 40.6284 30.9529 41.7741 30.9529 42.9401C30.9751 43.2762 30.9287 43.6132 30.8166 43.9308C30.7044 44.2483 30.5288 44.5397 30.3004 44.7873C30.072 45.0348 29.7957 45.2332 29.4881 45.3705C29.1806 45.5079 28.8484 45.5811 28.5116 45.586" fill="#1E2E50"/>
<path d="M32.207 39.5511C32.1251 39.5599 32.0423 39.5515 31.9639 39.5262C31.8855 39.5009 31.8134 39.4595 31.7521 39.4045C31.6908 39.3495 31.6418 39.2822 31.6083 39.207C31.5747 39.1318 31.5574 39.0504 31.5574 38.968C31.5574 38.8857 31.5747 38.8043 31.6083 38.7291C31.6418 38.6539 31.6908 38.5866 31.7521 38.5316C31.8134 38.4766 31.8855 38.4351 31.9639 38.4099C32.0423 38.3846 32.1251 38.3761 32.207 38.385C32.2868 38.3759 32.3677 38.3844 32.444 38.4099C32.5202 38.4353 32.59 38.4771 32.6484 38.5323C32.7069 38.5875 32.7526 38.6547 32.7823 38.7294C32.8121 38.8041 32.8252 38.8844 32.8207 38.9646C32.821 39.0458 32.8044 39.1262 32.7719 39.2006C32.7395 39.2751 32.692 39.342 32.6324 39.3971C32.5728 39.4523 32.5024 39.4944 32.4256 39.5209C32.3489 39.5474 32.2674 39.5577 32.1865 39.5511M32.282 45.5383C31.7705 45.5383 31.3341 45.5383 31.0886 45.5383V45.1496C31.5046 45.1496 31.8524 45.095 31.8524 44.4677V41.5423C31.4432 41.4468 31.3614 41.44 30.9863 41.3309V40.9149C31.4502 40.8708 31.9077 40.7748 32.3502 40.6285H32.732V44.4609C32.732 45.0746 33.1207 45.1428 33.4958 45.1428V45.5315C33.1889 45.5315 32.8139 45.5315 32.3024 45.5315" fill="#1E2E50"/>
<path d="M35.2416 45.5996C34.5597 45.5996 33.9255 45.3132 33.9255 44.4336L33.9801 41.4604H33.4141V41.0717C33.8483 40.7494 34.2164 40.3466 34.4983 39.8852H34.887V40.9353H36.585V41.4536H34.8802L34.7779 44.0858C34.7779 44.9041 35.2757 44.9927 35.5826 44.9927C35.9094 45.006 36.229 44.8938 36.4759 44.679L36.7077 44.9927C36.5166 45.1905 36.2862 45.346 36.0313 45.4494C35.7765 45.5527 35.5028 45.6016 35.228 45.5928" fill="#1E2E50"/>
<path d="M37.5059 44.2017C37.5066 44.3112 37.5296 44.4194 37.5733 44.5198C37.617 44.6203 37.6806 44.7108 37.7603 44.786C37.8399 44.8612 37.934 44.9194 38.0367 44.9573C38.1395 44.9952 38.2489 45.0119 38.3583 45.0063C38.5142 45.0096 38.6687 44.9754 38.8087 44.9065C38.9488 44.8377 39.0702 44.7363 39.1629 44.6108V43.3152C38.1741 43.4311 37.4854 43.5607 37.4854 44.2017M40.0903 45.6132C39.9201 45.5571 39.7627 45.468 39.627 45.351C39.4912 45.234 39.3799 45.0914 39.2993 44.9313C39.1469 45.1416 38.9471 45.3129 38.716 45.4314C38.485 45.5499 38.2292 45.6122 37.9696 45.6132C37.8123 45.6263 37.6541 45.6071 37.5045 45.5569C37.355 45.5066 37.2172 45.4264 37.0998 45.321C36.9823 45.2157 36.8876 45.0875 36.8214 44.9443C36.7552 44.801 36.7189 44.6458 36.7148 44.4881C36.7181 44.1925 36.8208 43.9067 37.0064 43.6766C37.1919 43.4465 37.4496 43.2856 37.7377 43.2197C38.2048 43.0741 38.6881 42.9871 39.1766 42.9606V42.2787C39.1869 42.1411 39.1672 42.003 39.1191 41.8737C39.0709 41.7445 38.9952 41.6272 38.8974 41.53C38.7995 41.4328 38.6817 41.358 38.5522 41.3106C38.4226 41.2633 38.2843 41.2446 38.1469 41.2558C37.9264 41.2543 37.7089 41.3062 37.513 41.4072C37.317 41.5081 37.1484 41.6551 37.0217 41.8354L36.7899 41.6309C36.9451 41.3165 37.1881 41.054 37.4894 40.8748C37.7908 40.6957 38.1375 40.6078 38.4878 40.6216C38.6839 40.6016 38.882 40.6243 39.0685 40.6883C39.255 40.7522 39.4254 40.8558 39.568 40.9919C39.7106 41.128 39.822 41.2934 39.8945 41.4767C39.967 41.66 39.9989 41.8568 39.988 42.0536V44.1676C39.988 44.6995 40.479 44.904 40.9154 45.0882L40.0903 45.6132Z" fill="#1E2E50"/>
<path d="M42.237 45.5042C41.7256 45.5042 41.3506 45.5042 41.0437 45.5042V45.1155C41.4528 45.1155 41.8074 45.0746 41.8074 44.4336V38.5895C41.3983 38.4941 41.3165 38.4736 40.9414 38.3645V37.9758C41.4051 37.9347 41.8627 37.8409 42.3052 37.6962H42.6598V44.5154C42.6598 45.1291 43.0485 45.1973 43.4304 45.1973V45.586C43.1235 45.586 42.7485 45.586 42.237 45.586" fill="#1E2E50"/>
<path d="M52.7545 39.7829V44.5563C52.7545 45.1359 53.2182 45.1154 53.5251 45.1154V45.5041C53.2182 45.5041 52.8431 45.5041 52.3113 45.5041C51.7794 45.5041 51.4043 45.5041 51.0974 45.5041V45.1427C51.4043 45.1427 51.8612 45.1427 51.8612 44.5835V39.8101L49.5631 45.5246H48.929L46.5559 40.3829V44.4744C46.5559 45.1564 47.0673 45.1564 47.3742 45.1564V45.545C47.0673 45.545 46.7877 45.545 46.2763 45.545C45.7649 45.545 45.4921 45.545 45.1852 45.545V45.1427C45.4921 45.1427 45.9422 45.1427 45.9422 44.4608V39.7829C45.9422 39.0191 45.608 38.9373 45.0625 38.9373V38.5486H45.9217H46.7809L49.4608 44.3926L51.7794 38.5486H52.6795H53.5796V38.9373C53.0818 38.9373 52.7613 38.9373 52.7613 39.7829" fill="#1E2E50"/>
<path d="M54.7364 44.2017C54.7361 44.3121 54.7586 44.4214 54.8024 44.5227C54.8462 44.6241 54.9104 44.7154 54.991 44.7908C55.0716 44.8663 55.1669 44.9244 55.2709 44.9615C55.3749 44.9986 55.4854 45.0138 55.5956 45.0063C55.7516 45.0096 55.906 44.9754 56.0461 44.9065C56.1861 44.8377 56.3075 44.7363 56.4002 44.6108V43.3152C55.4115 43.4311 54.7227 43.5607 54.7227 44.2017M57.3276 45.6132C56.9865 45.4983 56.7046 45.2532 56.5434 44.9313C56.3907 45.1412 56.1908 45.3122 55.9598 45.4307C55.7288 45.5491 55.4733 45.6117 55.2137 45.6132C55.0565 45.6263 54.8982 45.6071 54.7487 45.5569C54.5991 45.5066 54.4614 45.4264 54.3439 45.321C54.2264 45.2157 54.1317 45.0875 54.0655 44.9443C53.9993 44.801 53.9631 44.6458 53.959 44.4881C53.9623 44.1925 54.065 43.9067 54.2505 43.6766C54.4361 43.4465 54.6937 43.2856 54.9819 43.2197C55.4467 43.0748 55.9277 42.9877 56.4139 42.9606V42.2787C56.4242 42.1411 56.4046 42.003 56.3564 41.8737C56.3082 41.7445 56.2325 41.6272 56.1347 41.53C56.0368 41.4328 55.9191 41.358 55.7895 41.3106C55.6599 41.2633 55.5217 41.2446 55.3842 41.2558C55.1638 41.2543 54.9463 41.3062 54.7503 41.4072C54.5543 41.5081 54.3858 41.6551 54.259 41.8354L54.0204 41.6309C54.1756 41.3165 54.4186 41.054 54.7199 40.8748C55.0213 40.6957 55.368 40.6078 55.7183 40.6216C55.9144 40.6016 56.1125 40.6243 56.299 40.6883C56.4855 40.7522 56.6559 40.8558 56.7985 40.9919C56.9411 41.128 57.0525 41.2934 57.125 41.4767C57.1975 41.66 57.2294 41.8568 57.2185 42.0536V44.1676C57.2185 44.6995 57.7095 44.904 58.1459 45.0882L57.3276 45.6132Z" fill="#1E2E50"/>
<path d="M62.6209 45.5041C62.1095 45.5041 61.673 45.5041 61.4276 45.5041V45.1154C61.8503 45.1154 62.1913 45.0609 62.1913 44.4335V42.3809C62.1932 42.2339 62.1638 42.0882 62.105 41.9534C62.0463 41.8186 61.9595 41.6979 61.8505 41.5992C61.7415 41.5005 61.6128 41.4262 61.4728 41.3811C61.3329 41.336 61.185 41.3212 61.0389 41.3376C60.8279 41.3336 60.6184 41.3734 60.4236 41.4543C60.2288 41.5353 60.0528 41.6558 59.9069 41.8081V44.4881C59.9069 45.1018 60.2956 45.17 60.6706 45.17V45.5587C60.3638 45.5587 59.9887 45.5587 59.4773 45.5587C58.9658 45.5587 58.5294 45.5587 58.2839 45.5587V45.17C58.7067 45.17 59.0477 45.1154 59.0477 44.4881V41.5422C58.6385 41.4467 58.5567 41.4399 58.1816 41.3308V40.9148C58.6455 40.8707 59.103 40.7746 59.5455 40.6284H59.8796V41.3922C60.0785 41.1531 60.3292 40.9625 60.6128 40.8349C60.8964 40.7073 61.2054 40.646 61.5162 40.6557C61.7214 40.6437 61.9268 40.6754 62.1189 40.7487C62.3109 40.822 62.4852 40.9353 62.6302 41.0809C62.7753 41.2266 62.8877 41.4014 62.9602 41.5938C63.0326 41.7861 63.0634 41.9917 63.0505 42.1968V44.4881C63.0505 45.1018 63.4392 45.17 63.8143 45.17V45.5587C63.5074 45.5587 63.1323 45.5587 62.6209 45.5587" fill="#1E2E50"/>
<path d="M64.7403 44.2017C64.741 44.3118 64.7641 44.4206 64.8083 44.5215C64.8524 44.6224 64.9167 44.7133 64.997 44.7886C65.0774 44.8638 65.1723 44.922 65.2759 44.9594C65.3794 44.9969 65.4895 45.0128 65.5995 45.0063C65.7554 45.009 65.9097 44.9746 66.0496 44.9058C66.1895 44.837 66.3111 44.7359 66.4041 44.6108V43.3152C65.4154 43.4311 64.7266 43.5607 64.7266 44.2017M67.3315 45.6132C66.9904 45.4983 66.7085 45.2532 66.5473 44.9313C66.3946 45.1412 66.1947 45.3122 65.9637 45.4307C65.7327 45.5491 65.4772 45.6117 65.2176 45.6132C65.0604 45.6263 64.9021 45.6071 64.7526 45.5569C64.603 45.5066 64.4653 45.4264 64.3478 45.321C64.2303 45.2157 64.1356 45.0875 64.0694 44.9443C64.0032 44.801 63.967 44.6458 63.9629 44.4881C63.9662 44.1925 64.0689 43.9067 64.2544 43.6766C64.44 43.4465 64.6976 43.2856 64.9858 43.2197C65.4506 43.0748 65.9316 42.9878 66.4178 42.9606V42.2787C66.4281 42.1411 66.4085 42.003 66.3603 41.8737C66.3121 41.7445 66.2364 41.6272 66.1386 41.53C66.0407 41.4328 65.923 41.358 65.7934 41.3106C65.6639 41.2633 65.5256 41.2446 65.3881 41.2558C65.1677 41.2543 64.9502 41.3062 64.7542 41.4072C64.5582 41.5081 64.3897 41.6551 64.2629 41.8354L64.0311 41.6309C64.1856 41.316 64.4285 41.0529 64.73 40.8737C65.0315 40.6945 65.3786 40.6069 65.729 40.6216C65.9252 40.6016 66.1233 40.6243 66.3097 40.6883C66.4962 40.7522 66.6666 40.8558 66.8092 40.9919C66.9518 41.128 67.0632 41.2934 67.1357 41.4767C67.2082 41.66 67.2401 41.8568 67.2293 42.0536V44.1676C67.2293 44.6995 67.7202 44.904 68.1635 45.0882L67.3315 45.6132Z" fill="#1E2E50"/>
<path d="M70.3255 41.1331C70.0787 41.1181 69.8332 41.1775 69.6206 41.3036C69.408 41.4298 69.2382 41.6169 69.1331 41.8407C69.0281 42.0645 68.9927 42.3147 69.0315 42.5588C69.0703 42.803 69.1816 43.0299 69.3508 43.2101C69.5201 43.3902 69.7395 43.5155 69.9808 43.5695C70.222 43.6235 70.4739 43.6039 70.7038 43.5131C70.9338 43.4222 71.1311 43.2645 71.2704 43.0602C71.4096 42.8559 71.4843 42.6146 71.4848 42.3673C71.4993 42.208 71.4799 42.0474 71.4278 41.8961C71.3757 41.7448 71.2921 41.6063 71.1826 41.4896C71.073 41.373 70.94 41.2809 70.7923 41.2195C70.6445 41.158 70.4854 41.1286 70.3255 41.1331ZM70.5505 45.7292C70.1414 45.7292 69.8686 45.6678 69.4254 45.6133C69.2606 45.6815 69.116 45.7905 69.005 45.9301C68.8941 46.0697 68.8205 46.2352 68.7912 46.4111C68.7912 47.0521 69.5481 47.3999 70.4551 47.3999C71.362 47.3999 72.0166 46.9294 72.0166 46.3702C72.0166 45.811 71.3756 45.7974 70.5437 45.7292M72.0166 41.4058C72.2198 41.6849 72.3275 42.0222 72.3235 42.3673C72.3089 42.6115 72.2456 42.8503 72.1374 43.0696C72.0292 43.2889 71.8782 43.4844 71.6933 43.6445C71.5084 43.8046 71.2933 43.9261 71.0608 44.0019C70.8282 44.0777 70.5829 44.1062 70.3391 44.0858C70.1096 44.1085 69.8778 44.0853 69.6572 44.0176C69.5004 44.0789 69.1935 44.2699 69.1935 44.5358C69.1935 44.8018 69.9504 44.9109 70.796 44.9859C71.6416 45.0609 72.6986 45.0882 72.6986 46.0156C72.6986 46.943 71.7166 48 70.1618 48C68.8935 48 68.0684 47.4408 68.0684 46.7521C68.1033 46.4784 68.2091 46.2187 68.3754 45.9986C68.5416 45.7785 68.7626 45.6057 69.0162 45.4973C68.7094 45.3814 68.3752 45.1905 68.3752 44.8154C68.3752 44.4404 69.0571 44.0108 69.2753 43.8948C68.9893 43.758 68.7474 43.5435 68.5774 43.2759C68.4074 43.0082 68.3161 42.6981 68.3138 42.381C68.3327 42.1326 68.4008 41.8904 68.5143 41.6686C68.6278 41.4468 68.7843 41.2498 68.9748 41.0892C69.1652 40.9286 69.3858 40.8075 69.6236 40.7331C69.8613 40.6587 70.1115 40.6324 70.3596 40.6557C70.7492 40.649 71.1333 40.7479 71.4711 40.9421H72.9031V41.4127L72.0166 41.4058Z" fill="#1E2E50"/>
<path d="M74.8953 41.1535C74.1589 41.1535 73.7633 41.8763 73.7292 42.5651H76.0205C76.0205 41.9514 75.7136 41.1535 74.8953 41.1535ZM73.7224 42.9606C73.7224 44.5631 74.6635 44.8836 75.3045 44.8836C75.5473 44.8982 75.7904 44.8593 76.0166 44.7698C76.2428 44.6803 76.4467 44.5422 76.6137 44.3653L76.8456 44.679C76.6237 44.9768 76.3327 45.2162 75.9977 45.3766C75.6627 45.537 75.2937 45.6135 74.9226 45.5996C73.5588 45.5996 72.8359 44.5085 72.8359 43.1174C72.8359 41.7263 73.7224 40.6353 75.0044 40.6353C76.2864 40.6353 76.9138 41.5763 76.9138 42.7901V42.9606H73.7224Z" fill="#1E2E50"/>
<path d="M84.5565 45.5042C84.0451 45.5042 83.6087 45.5042 83.3632 45.5042V45.1155C83.7792 45.1155 84.1269 45.0609 84.1269 44.4336V42.381C84.1288 42.234 84.0994 42.0883 84.0407 41.9535C83.9819 41.8187 83.8952 41.698 83.7862 41.5993C83.6772 41.5006 83.5484 41.4262 83.4085 41.3811C83.2685 41.336 83.1206 41.3212 82.9745 41.3377C82.7605 41.3407 82.5496 41.389 82.3556 41.4796C82.1617 41.5701 81.9891 41.7007 81.8493 41.8628C81.8586 41.9808 81.8586 42.0993 81.8493 42.2173V44.4881C81.8493 45.1018 82.238 45.17 82.6131 45.17V45.5587C82.3062 45.5587 81.9312 45.5587 81.4197 45.5587C80.9083 45.5587 80.4719 45.5587 80.2264 45.5587V45.17C80.6424 45.17 80.9901 45.1155 80.9901 44.4881V42.381C80.992 42.234 80.9626 42.0883 80.9039 41.9535C80.8451 41.8187 80.7583 41.698 80.6494 41.5993C80.5404 41.5006 80.4116 41.4262 80.2717 41.3811C80.1317 41.336 79.9838 41.3212 79.8377 41.3377C79.6268 41.3341 79.4174 41.374 79.2227 41.455C79.0279 41.5359 78.8519 41.6562 78.7057 41.8082V44.4881C78.7057 45.1018 79.0944 45.17 79.4695 45.17V45.5587C79.1626 45.5587 78.7875 45.5587 78.2761 45.5587C77.7647 45.5587 77.3282 45.5587 77.0828 45.5587V45.17C77.4987 45.17 77.8465 45.1155 77.8465 44.4881V41.5423C77.4374 41.4468 77.3555 41.44 76.9805 41.3309V40.9149C77.4444 40.8708 77.9018 40.7747 78.3443 40.6285H78.6784V41.3922C78.8773 41.1532 79.1281 40.9626 79.4117 40.835C79.6953 40.7073 80.0042 40.6461 80.315 40.6558C80.5971 40.6504 80.8749 40.7251 81.1162 40.8711C81.3576 41.0172 81.5527 41.2286 81.6789 41.4809C81.8952 41.228 82.1626 41.0238 82.4634 40.8816C82.7643 40.7394 83.0919 40.6624 83.4246 40.6558C83.6298 40.6438 83.8352 40.6755 84.0272 40.7488C84.2193 40.8221 84.3936 40.9353 84.5386 41.081C84.6836 41.2267 84.7961 41.4015 84.8685 41.5938C84.941 41.7862 84.9718 41.9917 84.9589 42.1969V44.4881C84.9589 45.1018 85.3476 45.17 85.7226 45.17V45.5587C85.4158 45.5587 85.0407 45.5587 84.5293 45.5587" fill="#1E2E50"/>
<path d="M87.8436 41.1535C87.1071 41.1535 86.7116 41.8763 86.6775 42.5651H88.9687C88.9687 41.9514 88.6618 41.1535 87.8436 41.1535ZM86.6638 42.9606C86.6638 44.5631 87.6049 44.8836 88.2459 44.8836C88.4887 44.8982 88.7318 44.8593 88.958 44.7698C89.1843 44.6803 89.3881 44.5422 89.5552 44.3653L89.787 44.679C89.5655 44.9773 89.2746 45.217 88.9395 45.3774C88.6044 45.5378 88.2352 45.6141 87.864 45.5996C86.5002 45.5996 85.7773 44.5085 85.7773 43.1174C85.7773 41.7263 86.6638 40.6353 87.9458 40.6353C89.2278 40.6353 89.8552 41.5763 89.8552 42.7901V42.9606H86.6638Z" fill="#1E2E50"/>
<path d="M94.3768 45.5042C93.8653 45.5042 93.4289 45.5042 93.1834 45.5042V45.1155C93.6062 45.1155 93.9472 45.0609 93.9472 44.4336V42.381C93.9491 42.234 93.9196 42.0883 93.8609 41.9535C93.8021 41.8187 93.7154 41.698 93.6064 41.5993C93.4974 41.5006 93.3686 41.4262 93.2287 41.3811C93.0888 41.336 92.9408 41.3212 92.7947 41.3377C92.5838 41.3341 92.3745 41.374 92.1797 41.455C91.9849 41.5359 91.809 41.6562 91.6627 41.8082V44.4881C91.6627 45.1018 92.0514 45.17 92.4265 45.17V45.5587C92.1196 45.5587 91.7446 45.5587 91.2331 45.5587C90.7217 45.5587 90.2853 45.5587 90.0398 45.5587V45.17C90.4558 45.17 90.8035 45.1155 90.8035 44.4881V41.5423C90.3944 41.4468 90.3126 41.44 89.9375 41.3309V40.9149C90.4014 40.8708 90.8589 40.7747 91.3013 40.6285H91.6355V41.3922C91.8343 41.1532 92.0851 40.9626 92.3687 40.835C92.6523 40.7073 92.9612 40.6461 93.2721 40.6558C93.4756 40.6468 93.6788 40.6807 93.8683 40.7553C94.0579 40.83 94.2297 40.9436 94.3724 41.089C94.5152 41.2343 94.6258 41.4081 94.697 41.5989C94.7683 41.7898 94.7985 41.9935 94.7859 42.1969V44.4881C94.7859 45.1018 95.1746 45.17 95.5497 45.17V45.5587C95.2428 45.5587 94.8677 45.5587 94.3563 45.5587" fill="#1E2E50"/>
<path d="M97.3236 45.5997C96.6416 45.5997 96.0075 45.3132 96.0075 44.4336L96.062 41.4604H95.4688V41.0717C95.9028 40.7493 96.2709 40.3465 96.553 39.8852H96.9417V40.9149H98.6397V41.4331H96.9349L96.8939 44.0585C96.8939 44.8768 97.3918 44.9655 97.6986 44.9655C98.0256 44.9794 98.3454 44.8671 98.5919 44.6518L98.8238 44.9655C98.6329 45.1635 98.4025 45.3193 98.1476 45.4227C97.8927 45.5261 97.6189 45.5747 97.344 45.5656" fill="#1E2E50"/>
<path d="M106.38 43.5061V45.4291C105.723 45.5502 105.057 45.6186 104.389 45.6337C103.1 45.6337 102.172 45.4769 101.293 44.679C100.611 43.9384 100.25 42.9579 100.29 41.952C100.33 40.9462 100.766 39.997 101.504 39.3124C102.296 38.7427 103.258 38.459 104.232 38.5077C104.903 38.5318 105.572 38.5932 106.237 38.6918H106.523C106.523 38.6918 106.523 38.9919 106.523 39.5033C106.523 40.0147 106.523 40.3079 106.523 40.3079H106.134C106.134 39.626 105.773 39.101 104.266 39.101C102.097 39.101 101.293 40.1443 101.293 41.8695C101.25 42.7156 101.519 43.5479 102.05 44.2085C102.358 44.5195 102.729 44.7608 103.139 44.916C103.548 45.0713 103.986 45.137 104.423 45.1086C104.783 45.1326 105.144 45.098 105.493 45.0063V43.5061C105.493 42.9265 104.989 42.947 104.586 42.947V42.5515C104.893 42.5515 105.405 42.5515 105.916 42.5515C106.428 42.5515 106.857 42.5515 107.164 42.5515V42.9606C106.857 42.9606 106.4 42.9606 106.4 43.5198" fill="#1E2E50"/>
<path d="M110.178 41.5286C109.967 41.5099 109.756 41.5402 109.559 41.6171C109.363 41.694 109.187 41.8155 109.046 41.9719V44.4881C109.046 45.1018 109.475 45.17 109.884 45.17V45.5587C109.577 45.5587 109.202 45.5587 108.657 45.5587C108.111 45.5587 107.729 45.5587 107.423 45.5587V45.17C107.839 45.17 108.186 45.1155 108.186 44.4881V41.5423C107.777 41.4468 107.695 41.44 107.32 41.3309V40.9149C107.784 40.8715 108.242 40.7754 108.684 40.6285H109.018V41.5286C109.147 41.2727 109.341 41.0549 109.58 40.897C109.82 40.7391 110.096 40.6465 110.382 40.6285C110.514 40.6285 110.645 40.6492 110.771 40.6899V41.5968C110.576 41.5522 110.377 41.5271 110.178 41.5218" fill="#1E2E50"/>
<path d="M113.197 41.1467C112.052 41.1467 111.745 42.2582 111.745 43.1311C111.745 44.0039 112.092 45.1359 113.204 45.1359C114.316 45.1359 114.622 44.0448 114.622 43.0901C114.622 42.1355 114.316 41.1194 113.19 41.1194M113.143 45.5928C112.82 45.6139 112.496 45.5647 112.194 45.4486C111.892 45.3324 111.618 45.152 111.393 44.9199C111.167 44.6878 110.994 44.4094 110.887 44.1041C110.779 43.7988 110.739 43.4738 110.77 43.1515C110.763 42.8253 110.821 42.5011 110.941 42.1974C111.06 41.8938 111.239 41.6168 111.466 41.3823C111.692 41.1478 111.963 40.9605 112.263 40.8311C112.562 40.7018 112.885 40.6329 113.211 40.6284C113.534 40.6071 113.859 40.6565 114.162 40.7731C114.464 40.8896 114.738 41.0706 114.964 41.3035C115.189 41.5364 115.362 41.8156 115.469 42.1217C115.576 42.4279 115.615 42.7537 115.584 43.0765C115.6 43.4048 115.548 43.7329 115.432 44.0404C115.316 44.3479 115.138 44.6283 114.909 44.8643C114.68 45.1002 114.405 45.2866 114.102 45.4119C113.798 45.5372 113.471 45.5988 113.143 45.5928Z" fill="#1E2E50"/>
<path d="M120.019 45.6269H119.664V44.945C119.447 45.1708 119.185 45.3483 118.895 45.4659C118.604 45.5834 118.293 45.6382 117.98 45.6269C117.763 45.6307 117.548 45.5877 117.349 45.5008C117.15 45.4139 116.973 45.2851 116.828 45.1232C116.684 44.9614 116.576 44.7703 116.512 44.563C116.449 44.3557 116.43 44.1371 116.459 43.9221V41.5422C116.05 41.4467 116.022 41.4399 115.641 41.3308V40.9148C116.09 40.8809 116.533 40.7845 116.957 40.6284H117.291V43.7789C117.268 43.9313 117.281 44.0869 117.327 44.2338C117.374 44.3806 117.454 44.5148 117.56 44.6261C117.667 44.7374 117.798 44.8227 117.943 44.8756C118.087 44.9285 118.242 44.9476 118.396 44.9313C118.61 44.9378 118.823 44.8992 119.022 44.8182C119.22 44.7371 119.399 44.6154 119.548 44.4608V41.5422C119.139 41.4467 119.057 41.4399 118.682 41.3308V40.9148C119.146 40.871 119.603 40.775 120.046 40.6284H120.4V44.7199C120.81 44.8086 120.891 44.7881 121.266 44.904V45.2927C120.831 45.3434 120.402 45.4464 119.991 45.5996" fill="#1E2E50"/>
<path d="M123.801 41.2967C123.599 41.281 123.397 41.3101 123.208 41.382C123.02 41.454 122.849 41.5669 122.71 41.7127V44.7404C123.015 44.9947 123.404 45.126 123.801 45.1086C124.64 45.1086 125.281 44.5699 125.281 43.2061C125.281 41.9786 124.646 41.2967 123.801 41.2967ZM123.801 45.6064C123.433 45.6366 123.064 45.5708 122.73 45.4155V46.8748C122.73 47.4885 123.16 47.5567 123.569 47.5567V47.9454C123.262 47.9454 122.887 47.9454 122.341 47.9454C121.796 47.9454 121.414 47.9454 121.107 47.9454V47.5294C121.523 47.5294 121.878 47.4817 121.878 46.8475V41.5422C121.469 41.4467 121.387 41.4399 121.012 41.3308V40.9148C121.476 40.8719 121.933 40.7758 122.376 40.6284H122.717V41.2626C122.903 41.047 123.136 40.8776 123.399 40.7675C123.662 40.6575 123.946 40.6099 124.23 40.6284C125.594 40.6284 126.276 41.7741 126.276 42.9401C126.298 43.2762 126.252 43.6132 126.14 43.9308C126.028 44.2483 125.852 44.5397 125.624 44.7873C125.395 45.0348 125.119 45.2332 124.811 45.3705C124.504 45.5079 124.172 45.5811 123.835 45.586" fill="#1E2E50"/>
<path d="M125.077 8.01925H124.586C124.586 8.01925 118.497 7.6101 116.206 5.23022C114.908 3.84951 114.03 2.12747 113.676 0.265879C113.676 0.265879 118.64 3.7982 121.47 5.10748L122.234 5.50981L124.348 7.11231" fill="#1E2E50"/>
<path d="M128.398 12.1176C127.082 12.254 125.404 12.7995 124.988 13.7201C124.913 13.9283 124.879 14.1494 124.89 14.3707C124.9 14.5919 124.955 14.8089 125.05 15.0089C125.568 14.1974 127.887 13.9383 128.684 15.1794C128.241 14.7157 126.55 14.552 126.093 15.1794C126.398 15.2771 126.672 15.4507 126.891 15.684C125.854 15.6158 124.913 15.7317 124.845 16.8433C124.534 16.4231 124.303 15.9492 124.163 15.4453C124.566 15.8749 125.37 16.0181 125.391 15.268C124.913 14.9543 125.295 15.5613 124.907 15.5953C125.029 15.4112 124.341 15.2953 124.102 15.0907C123.747 13.045 126.264 12.4722 126.905 12.1585V12.1176C126.816 11.7834 126.093 9.43084 122.254 5.52346C122.254 5.52346 127.116 7.1396 130 10.9788L128.507 12.0698" fill="#1E2E50"/>
<path d="M150.076 -4.23994e-05C145.78 1.13194 142.759 0.893266 141.109 1.18649C140.87 1.18649 140.208 1.33651 140.208 1.33651C138.155 1.83312 136.327 3.00501 135.019 4.66426C133.546 6.6009 132.871 9.17171 130.819 10.6378L130.471 10.9038C132.66 9.83317 133.587 6.98277 135.121 4.89611V4.95066C133.717 7.11915 132.878 9.72407 130.532 11.3879C130.253 12.4108 131.214 13.536 130.784 13.9792C132.285 14.8998 133.567 17.6752 133.983 18.2548C134.217 18.6543 134.517 19.0115 134.869 19.3118C133.137 19.1004 131.657 17.1092 130.969 16.9183C129.68 18.0843 127.995 16.1954 127.709 15.95C128.384 16.9615 129.353 17.742 130.484 18.1866V18.4799L130.389 20.396C130.334 21.5076 130.273 22.6873 130.273 22.7077C130.264 22.828 130.264 22.9488 130.273 23.0691C130.273 24.958 130.819 26.9356 134.787 28.0198C141.606 29.8747 140.447 25.3945 140.447 25.3945C140.117 24.5494 139.623 23.7778 138.995 23.1237L133.983 16.5978C133.912 16.0487 133.782 15.509 133.594 14.9885C134.921 14.708 136.22 14.3062 137.474 13.7883C140.761 12.5472 146.823 5.45528 146.83 5.45528C146.837 5.45528 148.194 3.77777 148.576 3.17086C148.576 3.12313 148.63 3.07539 148.664 3.02766C150.342 0.770522 150.546 -0.136425 150.076 -0.0136807" fill="#1E2E50"/>
</g>
<defs>
<clipPath id="clip0_10602_795">
<rect width="150.294" height="48" fill="white"/>
</clipPath>
</defs>
</svg>
